<?xml version="1.0" encoding="UTF-8"?>
<svg version="1.1" xmlns="http://www.w3.org/2000/svg" width="1280" height="1280">
<path d="M0 0 C422.4 0 844.8 0 1280 0 C1280 422.4 1280 844.8 1280 1280 C857.6 1280 435.2 1280 0 1280 C0 857.6 0 435.2 0 0 Z " fill="#E94B70" transform="translate(0,0)"/>
<path d="M0 0 C1.04921631 0.00563965 2.09843262 0.0112793 3.17944336 0.01708984 C29.88755753 0.42927099 53.54777285 10.39445242 72.4375 29.3125 C73.16324219 29.96734375 73.88898437 30.6221875 74.63671875 31.296875 C90.84957503 46.20378412 99.62442258 69.78206561 100.78125 91.40234375 C101.49476236 115.39333641 94.49524725 139.80626901 77.9375 157.6875 C76.12269762 159.58174232 74.28169031 161.44651719 72.4375 163.3125 C71.78136719 164.04082031 71.12523437 164.76914062 70.44921875 165.51953125 C54.25590426 183.0998534 28.94321744 191.45426286 5.703125 192.5703125 C-19.35929015 193.36097936 -44.36504707 186.02149255 -63 168.75 C-64.87313735 166.95575421 -66.71732894 165.13583471 -68.5625 163.3125 C-69.65304687 162.33023438 -69.65304687 162.33023438 -70.765625 161.328125 C-82.29314631 150.70828254 -89.90542531 135.34403201 -93.5625 120.3125 C-112.39140831 120.34974622 -131.22011528 120.40972354 -150.04886246 120.49640274 C-158.79234353 120.53612991 -167.53573542 120.5685544 -176.27929688 120.58349609 C-183.90450931 120.59654551 -191.52952501 120.62359362 -199.15462661 120.66711307 C-203.18818708 120.6896543 -207.22150555 120.70541512 -211.25513458 120.70438385 C-215.06051263 120.70363286 -218.86535722 120.72175746 -222.67059708 120.75366783 C-224.0587813 120.76210801 -225.44702578 120.76395727 -226.83522415 120.75830269 C-242.11079478 120.70442261 -254.86422917 124.94606338 -266.25 135.3125 C-276.40639138 146.2964757 -278.99233779 159.03268837 -281.1875 173.3125 C-285.3865406 199.87850001 -294.26635962 220.32927 -313.5625 239.3125 C-312.18135598 242.48222553 -310.63024106 244.33613246 -308.0625 246.625 C-291.57086103 262.81733518 -284.76187277 284.71447835 -281.12084961 306.92089844 C-278.31715417 323.97774773 -274.73051165 338.64570519 -260.51953125 349.9375 C-245.61613107 360.40855162 -229.77682451 359.65996183 -212.25 359.9375 C-210.23761491 359.97576629 -208.22524468 360.01482273 -206.21289062 360.0546875 C-201.32955059 360.14972998 -196.44613435 360.23409668 -191.5625 360.3125 C-191.43824646 359.70994385 -191.31399292 359.1073877 -191.18597412 358.48657227 C-191.01599915 357.68791748 -190.84602417 356.8892627 -190.67089844 356.06640625 C-190.5053949 355.2782251 -190.33989136 354.49004395 -190.16937256 353.67797852 C-189.21650907 349.96389047 -187.58500614 346.69588178 -185.8125 343.3125 C-185.4525293 342.61535889 -185.09255859 341.91821777 -184.72167969 341.19995117 C-172.59706321 318.0438771 -152.35985497 300.34861212 -127.3125 292.4375 C-101.40774303 284.6223518 -73.62518468 286.73330826 -49.56982422 299.21386719 C-25.18335692 312.56087556 -8.00760532 334.83306671 0.03515625 361.27758789 C1.8261939 368.17419431 1.73294919 375.03871379 1.6875 382.125 C1.69523438 383.31931641 1.70296875 384.51363281 1.7109375 385.74414062 C1.68780553 396.36749841 0.63322465 406.45524193 -3.3125 416.375 C-3.57708008 417.05344971 -3.84166016 417.73189941 -4.11425781 418.4309082 C-14.29579285 443.92399845 -33.53236353 462.44985419 -58.5625 473.3125 C-83.58099521 483.27452776 -110.88972274 483.16588976 -135.81640625 472.96875 C-158.0803524 463.37777904 -175.14826749 446.44475162 -186.0625 425 C-186.38855225 424.36715088 -186.71460449 423.73430176 -187.05053711 423.08227539 C-188.73488897 419.62803293 -189.86571079 416.33498195 -190.66210938 412.56958008 C-190.83335327 411.76933914 -191.00459717 410.96909821 -191.18103027 410.14460754 C-191.30691528 409.54001205 -191.43280029 408.93541656 -191.5625 408.3125 C-192.18207581 408.32360306 -192.80165161 408.33470612 -193.44000244 408.34614563 C-199.99582217 408.45834124 -206.5513617 408.53281736 -213.10791016 408.5871582 C-215.54194243 408.61202146 -217.97590232 408.6459245 -220.40966797 408.68969727 C-239.42658155 409.02270873 -257.3288591 407.85296168 -274.5625 399.0625 C-275.34246338 398.67682861 -276.12242676 398.29115723 -276.92602539 397.89379883 C-299.96078504 386.15353274 -316.08346012 365.8989803 -325.125 341.9375 C-328.05012776 332.91835608 -329.32894787 323.54610768 -330.68774414 314.18603516 C-333.00324705 298.79128577 -337.87587088 285.25023426 -350.16796875 275.03125 C-361.62723293 266.80600328 -374.01760657 265.13602889 -387.75 265.21484375 C-388.69311035 265.2162587 -389.6362207 265.21767365 -390.60791016 265.21913147 C-393.59280697 265.2246876 -396.57762621 265.23723177 -399.5625 265.25 C-401.59765516 265.25502068 -403.63281151 265.25958259 -405.66796875 265.26367188 C-410.63284197 265.27464263 -415.59765787 265.29187661 -420.5625 265.3125 C-421.02865723 266.40006592 -421.49481445 267.48763184 -421.97509766 268.6081543 C-422.60039648 270.05525766 -423.22589539 271.50227458 -423.8515625 272.94921875 C-424.30994507 274.02085266 -424.30994507 274.02085266 -424.77758789 275.11413574 C-431.33893526 290.24337198 -441.41277802 302.44551888 -454.5625 312.3125 C-455.35269531 312.92867187 -456.14289063 313.54484375 -456.95703125 314.1796875 C-478.00142447 329.88445856 -505.17699691 335.44608541 -530.9609375 331.77734375 C-534.55222363 331.09981245 -538.03990731 330.28279499 -541.5625 329.3125 C-543.03783203 328.92964844 -543.03783203 328.92964844 -544.54296875 328.5390625 C-557.66189037 324.67951471 -570.53490055 317.59081936 -580.5625 308.3125 C-581.0673291 307.85391602 -581.5721582 307.39533203 -582.09228516 306.92285156 C-594.5592108 295.49514458 -605.71528219 281.39580688 -608.5625 264.3125 C-628.0325 264.3125 -647.5025 264.3125 -667.5625 264.3125 C-668.2225 267.2825 -668.8825 270.2525 -669.5625 273.3125 C-670.67603639 275.89205912 -671.77581059 278.24783377 -673.125 280.6875 C-673.47651123 281.33106445 -673.82802246 281.97462891 -674.19018555 282.63769531 C-677.65336586 288.78325509 -681.79699083 294.11164252 -686.5625 299.3125 C-687.38363281 300.22644531 -688.20476562 301.14039063 -689.05078125 302.08203125 C-706.49621282 320.56126617 -730.67777658 331.65603544 -756.12109375 332.515625 C-786.2149719 333.00101013 -811.42675913 323.5496011 -833.390625 302.6171875 C-852.96703631 282.01992039 -860.30118101 256.34673987 -859.8984375 228.57421875 C-858.99572709 204.08540124 -845.76203446 182.08950254 -828.5625 165.3125 C-824.71023317 162.07679968 -820.71684092 159.1470302 -816.5625 156.3125 C-815.78648437 155.76980469 -815.01046875 155.22710938 -814.2109375 154.66796875 C-792.73097932 140.68016093 -766.33008854 137.50673672 -741.375 141.25 C-714.83342856 147.09579496 -691.01939803 163.69619987 -676.375 186.5625 C-670.63079353 196.30467417 -666.82712286 204.93089425 -665.5625 216.3125 C-647.7425 216.3125 -629.9225 216.3125 -611.5625 216.3125 C-610.5725 212.3525 -609.5825 208.3925 -608.5625 204.3125 C-607.44914694 201.39412651 -606.347616 198.66919595 -605 195.875 C-604.65412842 195.15473633 -604.30825684 194.43447266 -603.9519043 193.69238281 C-600.35477733 186.48695519 -595.91003184 180.31153607 -590.5625 174.3125 C-590.07120605 173.76078125 -589.57991211 173.2090625 -589.07373047 172.640625 C-572.72774331 154.63784534 -549.13545045 141.47438152 -524.45654297 140.20410156 C-496.61351025 139.46420829 -470.83750831 145.58214954 -449.5625 164.3125 C-448.551875 165.075625 -447.54125 165.83875 -446.5 166.625 C-434.00451457 178.05703986 -423.90176675 194.14459881 -419.92578125 210.65234375 C-419.66708252 211.71702881 -419.40838379 212.78171387 -419.1418457 213.87866211 C-418.95066162 214.68182861 -418.75947754 215.48499512 -418.5625 216.3125 C-412.30003269 216.21974581 -406.03793486 216.11238055 -399.77587891 215.99511719 C-397.6480062 215.95696357 -395.520072 215.92208754 -393.39208984 215.890625 C-390.32367045 215.84467768 -387.25566953 215.78673312 -384.1875 215.7265625 C-382.77295532 215.70923569 -382.77295532 215.70923569 -381.32983398 215.69155884 C-366.85200074 215.37204245 -355.09470862 210.41552307 -344.62109375 200.46875 C-334.93726843 190.26203995 -332.51108972 176.96018732 -330.54467773 163.48950195 C-326.40210887 135.34098718 -314.96017678 109.53224879 -291.67382812 91.88085938 C-271.81772441 77.90360208 -251.21350814 72.13332086 -227.06835938 72.19897461 C-225.60906984 72.19925706 -224.14978017 72.19909762 -222.69049072 72.1985321 C-218.74892881 72.19824638 -214.80739762 72.20410675 -210.86584282 72.21110606 C-206.73921745 72.21737703 -202.61259131 72.21794635 -198.48596191 72.21913147 C-190.68054239 72.22223377 -182.87513694 72.23043228 -175.06972361 72.24048096 C-166.17974545 72.25167634 -157.2897666 72.25716117 -148.39978313 72.26217639 C-130.12068079 72.27261584 -111.84159153 72.2901939 -93.5625 72.3125 C-93.36769043 71.56833328 -93.17288086 70.82416656 -92.97216797 70.05744934 C-92.71064941 69.07531967 -92.44913086 68.09319 -92.1796875 67.08129883 C-91.92300293 66.11025711 -91.66631836 65.13921539 -91.40185547 64.13874817 C-90.22174262 60.16511374 -88.5401581 56.63018552 -86.5625 53 C-86.17441162 52.28070313 -85.78632324 51.56140625 -85.38647461 50.8203125 C-71.93896226 26.68661674 -49.87989843 10.70952301 -23.58764648 2.86450195 C-15.69155207 0.71223318 -8.17576905 -0.04636667 0 0 Z " fill="#FEFDFE" transform="translate(1019.5625,399.6875)"/>
<path d="M0 0 C11.43464258 7.46428057 18.9425428 18.77629875 22.11328125 32.09765625 C24.37176619 45.90185393 20.4717904 58.35157466 12.53125 69.65234375 C12.09167969 70.28785156 11.65210938 70.92335938 11.19921875 71.578125 C3.8795418 81.09159562 -8.73140385 87.11444673 -20.46875 88.65234375 C-35.96212887 89.54751675 -48.42278044 86.36333662 -60.71875 76.46484375 C-69.68771755 68.12076328 -75.77685876 55.73766975 -76.70703125 43.5234375 C-77.0135825 29.34140865 -72.82616322 17.73657249 -63.21484375 7.17578125 C-45.6891893 -9.64659654 -20.80885748 -12.22819355 0 0 Z " fill="#E94C71" transform="translate(1048.46875,455.34765625)"/>
<path d="M0 0 C8.81801955 7.09783771 14.60399073 18.34657648 16.8125 29.41015625 C18.00527538 44.64098038 13.73641462 57.37202029 4.078125 69.015625 C-2.1693478 75.61855746 -9.63139202 79.58649872 -18.1875 82.41015625 C-19.15236328 82.74853516 -19.15236328 82.74853516 -20.13671875 83.09375 C-32.41252265 86.8253885 -45.83078802 84.40320845 -57 78.59765625 C-69.48334826 71.27242033 -77.29066445 60.4681062 -81.4375 46.59765625 C-84.23870071 33.87869086 -81.2761076 22.03938276 -74.83984375 10.9765625 C-67.67922311 -0.14525253 -56.92434357 -7.32087691 -44.1875 -10.77734375 C-27.40051653 -14.12330127 -13.55074949 -9.84849115 0 0 Z " fill="#E84C71" transform="translate(537.1875,599.58984375)"/>
<path d="M0 0 C0.78761719 0.24492188 1.57523437 0.48984375 2.38671875 0.7421875 C14.16843426 4.9221996 22.61802816 12.34412846 29 23 C29.79277344 24.30324219 29.79277344 24.30324219 30.6015625 25.6328125 C35.85119506 35.92678472 35.60002035 48.75587117 33.1484375 59.85546875 C28.51061622 73.05906198 19.89779559 83.03628515 7.390625 89.30859375 C4.95156 90.34254522 2.52858218 91.21240883 0 92 C-0.70382812 92.22429687 -1.40765625 92.44859375 -2.1328125 92.6796875 C-16.16980305 96.46086946 -29.06765786 93.74210647 -41.3984375 86.65625 C-53.87398498 78.71385941 -60.2989493 67.70455302 -63.5859375 53.4609375 C-65.55094955 41.78209231 -63.18563702 30.2718719 -56.72265625 20.37890625 C-48.95751869 9.65562105 -38.4074696 1.15229303 -25.12890625 -1.59375 C-16.6733659 -2.69159794 -8.16510933 -2.55987211 0 0 Z " fill="#E84C71" transform="translate(273,590)"/>
<path d="M0 0 C1.50141317 1.18057697 2.98295056 2.38714322 4.4375 3.625 C5.36755859 4.33849609 5.36755859 4.33849609 6.31640625 5.06640625 C13.66908055 11.36634866 19.47638427 23.02683072 20.4375 32.625 C21.46659605 47.86353769 18.12434633 60.1964305 8.1875 71.8125 C-1.1543892 81.73921917 -12.4800953 86.73704153 -26.09765625 87.828125 C-40.61462341 88.09737323 -53.24958603 83.83115181 -63.9375 73.8125 C-74.06688996 62.92498522 -77.87698272 50.51237551 -77.7109375 35.8671875 C-77.10810965 22.7001582 -71.04107332 12.57782045 -61.5625 3.625 C-43.818804 -10.7866737 -19.28272075 -13.00189542 0 0 Z " fill="#E84C71" transform="translate(951.5625,744.375)"/>
<path d="M0 0 C19.47 0 38.94 0 59 0 C59.99 3.465 59.99 3.465 61 7 C60.34 7 59.68 7 59 7 C58.01 4.525 58.01 4.525 57 2 C39.18 2 21.36 2 3 2 C0.36 7.28 -2.28 12.56 -5 18 C-5.66 18.33 -6.32 18.66 -7 19 C-4.86562525 12.59687576 -2.42292412 6.29960271 0 0 Z " fill="#D05B77" transform="translate(352,664)"/>
<path d="M0 0 C1.38683235 -0.0049926 1.38683235 -0.0049926 2.80168152 -0.01008606 C4.76971946 -0.01516448 6.73776606 -0.01749411 8.70581055 -0.01733398 C11.67967607 -0.01949435 14.65315464 -0.0375667 17.62695312 -0.05664062 C27.24891181 -0.08431702 36.49952614 -0.0317866 45.91796875 2.16796875 C45.91796875 2.49796875 45.91796875 2.82796875 45.91796875 3.16796875 C44.33473187 3.19516175 42.75135813 3.21445181 41.16796875 3.23046875 C39.84539063 3.24787109 39.84539063 3.24787109 38.49609375 3.265625 C35.91796875 3.16796875 35.91796875 3.16796875 34.01470947 2.66896057 C31.85665453 2.15331843 30.00696621 2.04743395 27.79199219 2.05444336 C26.59120026 2.05455666 26.59120026 2.05455666 25.3661499 2.05467224 C24.51184387 2.05983353 23.65753784 2.06499481 22.77734375 2.0703125 C21.45407074 2.07243492 21.45407074 2.07243492 20.10406494 2.07460022 C17.2919981 2.08018874 14.48001145 2.09273914 11.66796875 2.10546875 C9.75911573 2.11048523 7.85026147 2.11504788 5.94140625 2.11914062 C1.26689628 2.13015441 -3.4075539 2.14741117 -8.08203125 2.16796875 C-8.39213135 3.10672852 -8.70223145 4.04548828 -9.02172852 5.01269531 C-9.92722052 7.70727939 -10.89882789 10.30749505 -12.01953125 12.91796875 C-12.33792969 13.6759375 -12.65632812 14.43390625 -12.984375 15.21484375 C-14.08203125 17.16796875 -14.08203125 17.16796875 -17.08203125 19.16796875 C-15.73226438 14.98055247 -14.21336112 10.91560423 -12.51953125 6.85546875 C-12.08511719 5.80746094 -11.65070312 4.75945313 -11.203125 3.6796875 C-8.93449847 -1.40298448 -4.99480198 0.00619129 0 0 Z " fill="#D35A77" transform="translate(608.08203125,663.83203125)"/>
<path d="M0 0 C0.66 0.33 1.32 0.66 2 1 C2.05867342 5.4582769 2.09382135 9.91645273 2.125 14.375 C2.14175781 15.62667969 2.15851562 16.87835937 2.17578125 18.16796875 C2.21348958 25.37026 1.8081292 32.01413893 0 39 C-0.66 39 -1.32 39 -2 39 C-1.93433838 38.29907227 -1.86867676 37.59814453 -1.80102539 36.87597656 C-1.08514629 28.83762064 -0.70456748 20.81456229 -0.4375 12.75 C-0.39431641 11.51636719 -0.35113281 10.28273438 -0.30664062 9.01171875 C-0.20185595 6.00789133 -0.0996846 3.00400025 0 0 Z " fill="#DA6783" transform="translate(1021,769)"/>
<path d="M0 0 C4.65900155 -0.04991513 9.31784303 -0.0859601 13.97705078 -0.10986328 C15.55780758 -0.11984159 17.13854631 -0.13342907 18.71923828 -0.15087891 C41.32968135 -0.39400195 41.32968135 -0.39400195 45.75537109 3.57373047 C46.3714624 4.27973389 46.3714624 4.27973389 47 5 C45.453125 4.814375 45.453125 4.814375 43.875 4.625 C42.75351562 4.49158203 42.75351562 4.49158203 41.609375 4.35546875 C39.82133767 4.11188881 38.03938382 3.82022754 36.265625 3.48828125 C23.92586737 1.32421928 11.48453125 1.81694236 -1 2 C-0.67 1.34 -0.34 0.68 0 0 Z " fill="#D55574" transform="translate(487,539)"/>
<path d="M0 0 C1.22763565 0.00212242 1.22763565 0.00212242 2.48007202 0.00428772 C5.09873075 0.00989335 7.71730454 0.02244677 10.3359375 0.03515625 C12.10937377 0.04017053 13.88281137 0.04473356 15.65625 0.04882812 C20.00784532 0.05986461 24.359377 0.077133 28.7109375 0.09765625 C28.7109375 0.75765625 28.7109375 1.41765625 28.7109375 2.09765625 C29.6596875 2.05640625 30.6084375 2.01515625 31.5859375 1.97265625 C34.7109375 2.09765625 34.7109375 2.09765625 36.7109375 4.09765625 C35.834375 3.95328125 34.9578125 3.80890625 34.0546875 3.66015625 C25.45093617 2.40107069 17.03432645 1.90477025 8.3359375 1.91015625 C6.84030273 1.90918945 6.84030273 1.90918945 5.31445312 1.90820312 C-0.93887841 1.95390854 -7.07995777 2.35709737 -13.2890625 3.09765625 C-8.63951897 -0.00203943 -5.46764641 -0.03531893 0 0 Z " fill="#D45675" transform="translate(1011.2890625,398.90234375)"/>
<path d="M0 0 C1.23556641 0.01740234 1.23556641 0.01740234 2.49609375 0.03515625 C3.32238281 0.04417969 4.14867187 0.05320312 5 0.0625 C5.63808594 0.07410156 6.27617188 0.08570313 6.93359375 0.09765625 C3.4309673 3.6002827 -1.14846362 3.1516034 -5.87841797 3.21118164 C-7.75098403 3.21102457 -9.62355513 3.2054501 -11.49609375 3.1953125 C-12.98159225 3.19319008 -12.98159225 3.19319008 -14.49710083 3.19102478 C-17.64523398 3.18544877 -20.79329477 3.17290067 -23.94140625 3.16015625 C-26.08203022 3.15513815 -28.22265531 3.15057579 -30.36328125 3.14648438 C-35.59768074 3.13548719 -40.83203832 3.118773 -46.06640625 3.09765625 C-46.06640625 2.76765625 -46.06640625 2.43765625 -46.06640625 2.09765625 C-44.76904541 2.0726001 -43.47168457 2.04754395 -42.13500977 2.02172852 C-37.33981769 1.92783873 -32.54477675 1.82757376 -27.74975586 1.7253418 C-25.67101568 1.68192291 -23.59223822 1.64025313 -21.51342773 1.6003418 C-18.5322748 1.54280704 -15.55131076 1.47906506 -12.5703125 1.4140625 C-11.16719566 1.38899376 -11.16719566 1.38899376 -9.73573303 1.36341858 C-8.87491623 1.34347336 -8.01409943 1.32352814 -7.12719727 1.30297852 C-5.98469261 1.27966209 -5.98469261 1.27966209 -4.81910706 1.25587463 C-2.54583975 1.05066409 -2.38323585 0.11262929 0 0 Z " fill="#CE5774" transform="translate(647.06640625,612.90234375)"/>
<path d="M0 0 C0.33 0 0.66 0 1 0 C0.37964801 12.49260569 -0.94194149 25.43872341 -6 37 C-7.05128687 33.76470168 -6.91901775 31.60277903 -6.125 28.3125 C-5.94195313 27.52488281 -5.75890625 26.73726562 -5.5703125 25.92578125 C-5 24 -5 24 -4 23 C-3.79224439 21.33795513 -3.63281745 19.66970509 -3.5 18 C-3.11111111 13.11111111 -3.11111111 13.11111111 -2 12 C-1.79162581 10.17093765 -1.63250341 8.33611866 -1.5 6.5 C-1.11111111 1.11111111 -1.11111111 1.11111111 0 0 Z " fill="#D85C7A" transform="translate(690,551)"/>
<path d="M0 0 C0.69770122 2.170626 1.1083614 3.57834885 0.53344727 5.81542969 C-0.08503427 8.34823187 -0.11280945 10.59677505 -0.09765625 13.203125 C-0.09443359 14.1828125 -0.09121094 15.1625 -0.08789062 16.171875 C-0.07951172 17.18765625 -0.07113281 18.2034375 -0.0625 19.25 C-0.05798828 20.28125 -0.05347656 21.3125 -0.04882812 22.375 C-0.03706088 24.91672573 -0.02062011 27.45833319 0 30 C-3.70197271 26.29802729 -3.18320274 21.25979425 -3.25 16.25 C-3.2243881 10.167174 -2.31650617 5.59822324 0 0 Z " fill="#DE6C88" transform="translate(975,479)"/>
<path d="M0 0 C0.5625 1.9375 0.5625 1.9375 1 4 C0.67 4.33 0.34 4.66 0 5 C-0.36760731 7.32817964 -0.70241581 9.6618385 -1 12 C-1.66 12 -2.32 12 -3 12 C-3 17.94 -3 23.88 -3 30 C-6.54410206 24.68384691 -5.58965013 18.01292195 -4.39453125 11.90625 C-3.28139228 7.702314 -2.04786201 3.84641908 0 0 Z " fill="#DF7991" transform="translate(460,615)"/>
<path d="M0 0 C1.65 0 3.3 0 5 0 C5 0.66 5 1.32 5 2 C18.52472039 3.07054511 18.52472039 3.07054511 32 2 C32.495 2.99 32.495 2.99 33 4 C22.82282079 5.93553715 11.60574832 6.40853292 2 2 C1.34 1.34 0.68 0.68 0 0 Z " fill="#DA6581" transform="translate(1001,539)"/>
<path d="M0 0 C4.92957259 -0.07414321 9.85882081 -0.12859817 14.78881836 -0.16479492 C16.4659592 -0.17988384 18.14306057 -0.20035748 19.82006836 -0.22631836 C22.23040504 -0.26269811 24.64022019 -0.27972486 27.05078125 -0.29296875 C27.80087967 -0.30845261 28.55097809 -0.32393646 29.32380676 -0.33988953 C34.55076615 -0.34158031 34.55076615 -0.34158031 36.99682617 1.51831055 C37.32787354 2.00726807 37.6589209 2.49622559 38 3 C37.44779785 2.9285376 36.8955957 2.8570752 36.32666016 2.78344727 C28.66745916 1.89599684 21.07771553 1.88593702 13.375 1.9375 C11.43947266 1.94426758 11.43947266 1.94426758 9.46484375 1.95117188 C6.30984625 1.96285705 3.15494863 1.97923956 0 2 C0 1.34 0 0.68 0 0 Z " fill="#D65B79" transform="translate(906,687)"/>
<path d="M0 0 C0.66 0.33 1.32 0.66 2 1 C0.33333333 2.66666667 -1.33333333 4.33333333 -3 6 C-3.886875 6.928125 -4.77375 7.85625 -5.6875 8.8125 C-8 11 -8 11 -10 11 C-10.66 12.32 -11.32 13.64 -12 15 C-12.99 14.67 -13.98 14.34 -15 14 C-5.77448747 3.25740319 -5.77448747 3.25740319 0 0 Z " fill="#DD5C7B" transform="translate(232,595)"/>
<path d="M0 0 C0.66 0.33 1.32 0.66 2 1 C-4.27 7.27 -10.54 13.54 -17 20 C-17 15.78773475 -14.62438852 14.02396665 -11.875 11.125 C-11.1634375 10.34962891 -11.1634375 10.34962891 -10.4375 9.55859375 C-7.17703371 6.06020154 -3.72611621 2.99637238 0 0 Z " fill="#FDE1EB" transform="translate(197,560)"/>
<path d="M0 0 C0 3.52398786 -0.55115107 4.01504367 -2.8125 6.5625 C-3.33457031 7.16191406 -3.85664062 7.76132812 -4.39453125 8.37890625 C-6 10 -6 10 -9 12 C-10.43683848 14.17595141 -10.43683848 14.17595141 -11.6875 16.625 C-12.12449219 17.44226563 -12.56148437 18.25953125 -13.01171875 19.1015625 C-13.33785156 19.72804688 -13.66398438 20.35453125 -14 21 C-14.66 20.67 -15.32 20.34 -16 20 C-11.82375992 12.02100473 -6.57945724 6.11135356 0 0 Z " fill="#D86581" transform="translate(759,529)"/>
<path d="M0 0 C1.65 0 3.3 0 5 0 C5 0.66 5 1.32 5 2 C6.051875 1.95875 7.10375 1.9175 8.1875 1.875 C14.20458589 1.85331681 20.0856743 2.99023708 26 4 C26 4.33 26 4.66 26 5 C17.63432896 5.32546559 9.77000987 5.49971519 2 2 C1.34 1.34 0.68 0.68 0 0 Z " fill="#DC6985" transform="translate(238,679)"/>
<path d="M0 0 C6.06951242 6.62128628 5.25139398 15.62020079 5 24 C4.67 24 4.34 24 4 24 C3.77213542 21.94921875 3.54427083 19.8984375 3.31640625 17.84765625 C3.18113386 15.98859771 3.18113386 15.98859771 2 15 C1.78958464 13.4218848 1.63143815 11.83664622 1.5 10.25 C1.18607205 6.77187761 0.79512145 3.40766334 0 0 Z " fill="#DF718C" transform="translate(549,617)"/>
<path d="M0 0 C1.53617912 4.09647766 0.69045256 7.78823937 0 12 C-0.33 12.33 -0.66 12.66 -1 13 C-1.23363881 14.84891946 -1.41303635 16.70488031 -1.5625 18.5625 C-1.64628906 19.57441406 -1.73007812 20.58632813 -1.81640625 21.62890625 C-1.87699219 22.41136719 -1.93757812 23.19382812 -2 24 C-2.33 24 -2.66 24 -3 24 C-3.47437775 6.94875549 -3.47437775 6.94875549 0 0 Z " fill="#D8617F" transform="translate(877,766)"/>
<path d="M0 0 C0.33 0.66 0.66 1.32 1 2 C-0.31345382 4.62690764 -1.73051033 5.08100461 -4.3125 6.4375 C-6.75411869 7.72489894 -8.93487487 8.94864902 -11.10546875 10.66015625 C-13 12 -13 12 -16 12 C-16 11.34 -16 10.68 -16 10 C-14.12986004 8.77970427 -12.20149253 7.64795936 -10.25 6.5625 C-6.65071768 4.54985783 -3.23311245 2.56608683 0 0 Z " fill="#DA617F" transform="translate(565,711)"/>
<path d="M0 0 C0.33 0.99 0.66 1.98 1 3 C-3.47307108 7.04165813 -7.88276824 10.80173015 -13 14 C-13.66 13.67 -14.32 13.34 -15 13 C-14.33613281 12.48050781 -13.67226563 11.96101562 -12.98828125 11.42578125 C-8.41377883 7.81292606 -3.98940601 4.25536641 0 0 Z " fill="#DA6480" transform="translate(330,701)"/>
<path d="M0 0 C0.99 0.66 1.98 1.32 3 2 C1.71554544 4.64956093 0.42290321 7.29453793 -0.875 9.9375 C-1.23980469 10.69224609 -1.60460937 11.44699219 -1.98046875 12.22460938 C-2.33496094 12.94326172 -2.68945312 13.66191406 -3.0546875 14.40234375 C-3.37937012 15.06741943 -3.70405273 15.73249512 -4.03857422 16.41772461 C-5 18 -5 18 -7 19 C-5.58632741 14.65328707 -4.02739359 10.3864361 -2.375 6.125 C-1.92898438 4.97257813 -1.48296875 3.82015625 -1.0234375 2.6328125 C-0.68570312 1.76398437 -0.34796875 0.89515625 0 0 Z " fill="#D55D79" transform="translate(352,664)"/>
<path d="M0 0 C0.33 0 0.66 0 1 0 C1.04241723 2.33294775 1.04092937 4.66702567 1 7 C0.67 7.33 0.34 7.66 0 8 C-0.28101946 10.31952569 -0.44782625 12.63885514 -0.62109375 14.96875 C-0.74613281 15.6390625 -0.87117187 16.309375 -1 17 C-1.66 17.33 -2.32 17.66 -3 18 C-2.88521587 15.93690624 -2.75773802 13.87451646 -2.625 11.8125 C-2.55539062 10.66394531 -2.48578125 9.51539063 -2.4140625 8.33203125 C-2.02490426 5.20040883 -1.3190149 2.84714191 0 0 Z " fill="#D95E7C" transform="translate(742,553)"/>
<path d="M0 0 C0 3 0 3 -2.40625 5.69921875 C-3.4299968 6.70302243 -4.4616054 7.69885649 -5.5 8.6875 C-6.02464844 9.19861328 -6.54929687 9.70972656 -7.08984375 10.23632812 C-8.38660904 11.49772708 -9.69246117 12.74977212 -11 14 C-11.66 13.67 -12.32 13.34 -13 13 C-8.96476648 8.18876004 -4.95532767 3.86757281 0 0 Z " fill="#FEE4EE" transform="translate(957,423)"/>
<path d="M0 0 C0.33 0.99 0.66 1.98 1 3 C0.01 3.33 -0.98 3.66 -2 4 C-2.28875 4.763125 -2.5775 5.52625 -2.875 6.3125 C-4.2648116 9.63260549 -6.10507099 10.94307675 -9 13 C-9.66 12.67 -10.32 12.34 -11 12 C-10.54109375 11.55269531 -10.0821875 11.10539063 -9.609375 10.64453125 C-6.16447701 7.25029352 -2.92744915 3.86423288 0 0 Z " fill="#D95B79" transform="translate(718,625)"/>
<path d="M0 0 C17.35253456 -0.28708237 17.35253456 -0.28708237 21 2.5625 C21.33 3.036875 21.66 3.51125 22 4 C14.64971227 3.11796547 7.32650983 2.05987432 0 1 C0 0.67 0 0.34 0 0 Z " fill="#DB6F88" transform="translate(512,540)"/>
<path d="M0 0 C7.04440079 -0.21133202 13.24112575 -0.07965362 20 2 C20 2.33 20 2.66 20 3 C13.06697907 3.22731216 6.7831364 2.42002108 0 1 C0 0.67 0 0.34 0 0 Z " fill="#DC6481" transform="translate(918,736)"/>
<path d="M0 0 C0.33 0.66 0.66 1.32 1 2 C-1.50123051 6.16871752 -3.49415979 8.98422938 -8 11 C-8.66 10.67 -9.32 10.34 -10 10 C-9.52949219 9.61328125 -9.05898438 9.2265625 -8.57421875 8.828125 C-5.3182388 6.10469664 -2.34546467 3.58718126 0 0 Z " fill="#DB627E" transform="translate(579,698)"/>
<path d="M0 0 C2.64 0 5.28 0 8 0 C8 0.66 8 1.32 8 2 C9.423125 1.938125 9.423125 1.938125 10.875 1.875 C14 2 14 2 16 4 C10.72 3.34 5.44 2.68 0 2 C0 1.34 0 0.68 0 0 Z " fill="#DA6581" transform="translate(1032,399)"/>
<path d="M0 0 C0.5625 1.9375 0.5625 1.9375 1 4 C0.67 4.33 0.34 4.66 0 5 C-0.36760731 7.32817964 -0.70241581 9.6618385 -1 12 C-1.66 12 -2.32 12 -3 12 C-3.33 12.66 -3.66 13.32 -4 14 C-3.53328373 8.58609132 -2.75702189 4.79482068 0 0 Z " fill="#DA627F" transform="translate(460,615)"/>
<path d="M0 0 C0 3.58912412 -0.66436554 4.10857029 -3 6.6875 C-3.556875 7.31011719 -4.11375 7.93273437 -4.6875 8.57421875 C-5.120625 9.04472656 -5.55375 9.51523437 -6 10 C-6.33 9.01 -6.66 8.02 -7 7 C-4.69 4.69 -2.38 2.38 0 0 Z " fill="#D95776" transform="translate(759,529)"/>
<path d="M0 0 C1 3 1 3 0.07421875 5.04296875 C-0.61220703 6.10451172 -0.61220703 6.10451172 -1.3125 7.1875 C-1.76238281 7.90292969 -2.21226562 8.61835938 -2.67578125 9.35546875 C-3.11277344 9.89816406 -3.54976562 10.44085938 -4 11 C-4.66 11 -5.32 11 -6 11 C-4.54955729 6.89041233 -2.48889248 3.56741255 0 0 Z " fill="#D95E7B" transform="translate(982,467)"/>
<path d="M0 0 C0.33 0 0.66 0 1 0 C1.58305225 3.84814487 0.7002883 5.76308635 -1.5 8.8125 C-2.32219744 9.88364055 -3.15204049 10.9491359 -4 12 C-4.33 11.34 -4.66 10.68 -5 10 C-4.00390625 7.6171875 -4.00390625 7.6171875 -2.5625 4.875 C-1.85287109 3.50988281 -1.85287109 3.50988281 -1.12890625 2.1171875 C-0.75636719 1.41851563 -0.38382813 0.71984375 0 0 Z " fill="#D9647F" transform="translate(1014,820)"/>
<path d="M0 0 C1.3778771 3.13153887 0.90076044 4.28779473 -0.25 7.625 C-2 11 -2 11 -5 13 C-3.58192622 8.52761347 -1.88695626 4.28853694 0 0 Z " fill="#DA607F" transform="translate(596,670)"/>
<path d="M0 0 C1.12894876 0.93274109 2.25300876 1.87140122 3.375 2.8125 C4.00148438 3.33457031 4.62796875 3.85664062 5.2734375 4.39453125 C7 6 7 6 9 9 C8.01 9 7.02 9 6 9 C6 8.34 6 7.68 6 7 C5.34 7 4.68 7 4 7 C0 2.52941176 0 2.52941176 0 0 Z " fill="#DB6986" transform="translate(427,696)"/>
<path d="M0 0 C2.97 0 5.94 0 9 0 C5.99382731 3.00617269 3.17618402 2.59585316 -1 3 C-0.67 2.01 -0.34 1.02 0 0 Z " fill="#D9607D" transform="translate(645,613)"/>
<path d="M0 0 C0.33 0 0.66 0 1 0 C1.25 3.25 1.25 3.25 1 7 C-0.32 8.32 -1.64 9.64 -3 11 C-2.01 7.37 -1.02 3.74 0 0 Z " fill="#D96580" transform="translate(1018,808)"/>
<path d="M0 0 C3.85645121 -0.22036864 6.49223216 0.39644899 10 2 C10 2.66 10 3.32 10 4 C8.72125 3.71125 7.4425 3.4225 6.125 3.125 C5.40570312 2.96257813 4.68640625 2.80015625 3.9453125 2.6328125 C2 2 2 2 0 0 Z " fill="#DC6C86" transform="translate(768,755)"/>
<path d="M0 0 C0.99 0.66 1.98 1.32 3 2 C2.01 3.98 1.02 5.96 0 8 C-0.66 8 -1.32 8 -2 8 C-1.34 5.36 -0.68 2.72 0 0 Z " fill="#DD627F" transform="translate(352,664)"/>
</svg>
